<svg width="26" height="26" viewBox="0 0 26 26" fill="none" xmlns="http://www.w3.org/2000/svg">
<g clip-path="url(#clip0_453_369)">
<path d="M17.6084 8.39175C16.4391 7.22243 14.7883 6.46582 13 6.46582C11.2116 6.46582 9.56081 7.18804 8.3915 8.39175C7.22219 9.56106 6.46558 11.2119 6.46558 13.0002C6.46558 14.7886 7.22219 16.4394 8.3915 17.6087C9.56081 18.778 11.2116 19.5346 13 19.5346C14.7883 19.5346 16.4391 18.8124 17.6084 17.6087C18.7777 16.4394 19.5344 14.7886 19.5344 13.0002C19.5344 11.2119 18.8121 9.56106 17.6084 8.39175ZM16.3703 16.3706C15.5106 17.2304 14.3068 17.7462 13 17.7462C11.6931 17.7462 10.4894 17.2304 9.6296 16.3706C8.76981 15.5108 8.25394 14.3071 8.25394 13.0002C8.25394 11.6933 8.76981 10.4896 9.6296 9.62984C10.4894 8.77005 11.6931 8.25418 13 8.25418C14.3068 8.25418 15.5106 8.77005 16.3703 9.62984C17.2301 10.4896 17.746 11.6933 17.746 13.0002C17.746 14.3071 17.2301 15.5108 16.3703 16.3706Z" fill="white"/>
<path d="M25.1058 12.106H22.4577C21.9762 12.106 21.5635 12.5187 21.5635 13.0001C21.5635 13.4816 21.9762 13.8943 22.4577 13.8943H25.1058C25.5873 13.8943 26 13.4816 26 13.0001C26 12.5187 25.5873 12.106 25.1058 12.106Z" fill="white"/>
<path d="M13 21.5635C12.5185 21.5635 12.1058 21.9762 12.1058 22.4577V25.1058C12.1058 25.5873 12.5185 26 13 26C13.4815 26 13.8942 25.5873 13.8942 25.1058V22.4577C13.8942 21.9762 13.4815 21.5635 13 21.5635Z" fill="white"/>
<path d="M22.1825 20.9444L20.291 19.0529C19.9814 18.7089 19.3968 18.7089 19.0529 19.0529C18.7089 19.3968 18.7089 19.947 19.0529 20.291L20.9444 22.1825C21.2883 22.5264 21.8386 22.5264 22.1825 22.1825C22.5264 21.8386 22.5264 21.2883 22.1825 20.9444Z" fill="white"/>
<path d="M13 0C12.5185 0 12.1058 0.412698 12.1058 0.89418V3.54233C12.1058 4.02381 12.5185 4.43651 13 4.43651C13.4815 4.43651 13.8942 4.02381 13.8942 3.54233V0.89418C13.8942 0.412698 13.4815 0 13 0Z" fill="white"/>
<path d="M22.2169 3.81751C21.873 3.47359 21.3227 3.47359 20.9788 3.81751L19.0873 5.70904C18.7434 6.05296 18.7434 6.60322 19.0873 6.94714C19.3968 7.29105 19.9815 7.29105 20.3254 6.94714L22.2169 5.0556C22.5608 4.71169 22.5608 4.16142 22.2169 3.81751Z" fill="white"/>
<path d="M3.54233 12.106H0.89418C0.412698 12.106 0 12.5187 0 13.0001C0 13.4816 0.378307 13.8943 0.89418 13.8943H3.54233C4.02381 13.8943 4.43651 13.4816 4.43651 13.0001C4.43651 12.5187 4.02381 12.106 3.54233 12.106Z" fill="white"/>
<path d="M6.91271 19.0529C6.60319 18.7089 6.01853 18.7089 5.67462 19.0529L3.78308 20.9444C3.43917 21.2883 3.43917 21.8386 3.78308 22.1825C4.127 22.5264 4.67726 22.5264 5.02118 22.1825L6.91271 20.291C7.25663 19.947 7.25663 19.3968 6.91271 19.0529Z" fill="white"/>
<path d="M6.91271 5.70904L5.02118 3.81751C4.67726 3.47359 4.127 3.47359 3.78308 3.81751C3.43917 4.16142 3.43917 4.71169 3.78308 5.0556L5.67462 6.94714C6.01853 7.29105 6.5688 7.29105 6.91271 6.94714C7.25663 6.60322 7.25663 6.05296 6.91271 5.70904Z" fill="white"/>
</g>
<defs>
<clipPath id="clip0_453_369">
<rect width="26" height="26" fill="white"/>
</clipPath>
</defs>
</svg>
