<svg xmlns="http://www.w3.org/2000/svg" width="26" height="20" viewBox="0 0 26 20" fill="none">
  <path d="M24.9363 5.75332L14.0553 1.14915C13.7209 1.00849 13.3618 0.936035 12.999 0.936035C12.6363 0.936035 12.2772 1.00849 11.9428 1.14915L1.06179 5.75332C0.767681 5.87772 0.516749 6.08601 0.340329 6.35219C0.16391 6.61836 0.0698242 6.93061 0.0698242 7.24994C0.0698242 7.56928 0.16391 7.88153 0.340329 8.1477C0.516749 8.41388 0.767681 8.62217 1.06179 8.74657L4.87512 10.3591V15.5445C4.87219 16.0101 4.99051 16.4685 5.21845 16.8745C5.44638 17.2805 5.77608 17.6202 6.17512 17.8601C8.24587 19.0708 10.6014 19.7089 13.0001 19.7089C15.3988 19.7089 17.7544 19.0708 19.8251 17.8601C20.2242 17.6202 20.5539 17.2805 20.7818 16.8745C21.0097 16.4685 21.128 16.0101 21.1251 15.5445V10.3591L22.7501 9.6712V12.2398C22.5325 12.334 22.3436 12.4839 22.2025 12.6745C22.0614 12.865 21.973 13.0894 21.9464 13.3251C21.9197 13.5607 21.9557 13.7992 22.0507 14.0164C22.1457 14.2337 22.2963 14.422 22.4874 14.5624C22.3174 14.6875 22.1792 14.8506 22.0837 15.0387C21.9882 15.2269 21.9382 15.4348 21.9376 15.6458V16.9999C21.9376 17.1436 21.9947 17.2814 22.0963 17.383C22.1979 17.4845 22.3356 17.5416 22.4793 17.5416H24.1043C24.2479 17.5416 24.3857 17.4845 24.4873 17.383C24.5889 17.2814 24.646 17.1436 24.646 16.9999V15.6458C24.6454 15.4348 24.5954 15.2269 24.4999 15.0387C24.4044 14.8506 24.2661 14.6875 24.0962 14.5624C24.2872 14.422 24.4379 14.2337 24.5328 14.0164C24.6278 13.7992 24.6638 13.5607 24.6372 13.3251C24.6105 13.0894 24.5222 12.865 24.3811 12.6745C24.2399 12.4839 24.0511 12.334 23.8335 12.2398V9.21294L24.9363 8.74657C25.2304 8.62217 25.4813 8.41388 25.6577 8.1477C25.8342 7.88153 25.9282 7.56928 25.9282 7.24994C25.9282 6.93061 25.8342 6.61836 25.6577 6.35219C25.4813 6.08601 25.2304 5.87772 24.9363 5.75332ZM23.5626 13.4791C23.5626 13.5327 23.5467 13.585 23.517 13.6296C23.4872 13.6741 23.4449 13.7088 23.3954 13.7293C23.3459 13.7498 23.2915 13.7552 23.2389 13.7447C23.1864 13.7343 23.1382 13.7085 23.1003 13.6706C23.0624 13.6327 23.0366 13.5845 23.0262 13.5319C23.0157 13.4794 23.0211 13.425 23.0416 13.3755C23.0621 13.326 23.0968 13.2837 23.1413 13.2539C23.1859 13.2242 23.2382 13.2083 23.2918 13.2083C23.3636 13.2083 23.4325 13.2368 23.4833 13.2876C23.5341 13.3384 23.5626 13.4073 23.5626 13.4791ZM23.5626 16.4583H23.021V15.6458C23.021 15.5739 23.0495 15.5051 23.1003 15.4543C23.1511 15.4035 23.22 15.3749 23.2918 15.3749C23.3636 15.3749 23.4325 15.4035 23.4833 15.4543C23.5341 15.5051 23.5626 15.5739 23.5626 15.6458V16.4583ZM20.0418 15.5445C20.0449 15.8215 19.9759 16.0946 19.8415 16.3369C19.7071 16.5791 19.512 16.7823 19.2753 16.9263C17.3711 18.0387 15.2054 18.6249 13.0001 18.6249C10.7948 18.6249 8.62911 18.0387 6.72491 16.9263C6.48823 16.7823 6.2931 16.5791 6.15872 16.3369C6.02433 16.0946 5.95531 15.8215 5.95845 15.5445V10.8174L11.945 13.3502C12.2793 13.491 12.6384 13.5635 13.0012 13.5635C13.364 13.5635 13.7231 13.491 14.0575 13.3502L20.0418 10.8174V15.5445ZM24.5143 7.74882L13.6333 12.353C13.4328 12.4372 13.2176 12.4806 13.0001 12.4806C12.7827 12.4806 12.5674 12.4372 12.3669 12.353L1.48591 7.74882C1.38788 7.70735 1.30423 7.63792 1.24542 7.5492C1.18662 7.46047 1.15526 7.35639 1.15526 7.24994C1.15526 7.1435 1.18662 7.03942 1.24542 6.95069C1.30423 6.86197 1.38788 6.79254 1.48591 6.75107L12.3669 2.1469C12.5674 2.06252 12.7826 2.01906 13.0001 2.01906C13.2176 2.01906 13.4329 2.06252 13.6333 2.1469L24.5143 6.75107C24.6124 6.79254 24.696 6.86197 24.7548 6.95069C24.8136 7.03942 24.845 7.1435 24.845 7.24994C24.845 7.35639 24.8136 7.46047 24.7548 7.5492C24.696 7.63792 24.6124 7.70735 24.5143 7.74882Z" fill="#1A2744"/>
</svg>