<svg xmlns="http://www.w3.org/2000/svg" width="26" height="27" viewBox="0 0 26 27" fill="none">
  <path d="M0 6.91906V20.0808C0 21.8944 1.4795 23.3739 3.29309 23.3739H13.9307C15.7442 23.3739 17.2237 21.8944 17.2237 20.0808V17.949C17.2237 17.5884 16.9321 17.2968 16.5715 17.2968C16.2109 17.2968 15.9192 17.5884 15.9192 17.949V20.0808C15.9192 21.1785 15.023 22.0747 13.9254 22.0747H3.29309C2.19539 22.0747 1.2992 21.1785 1.2992 20.0808V6.91906C1.2992 5.82137 2.19539 4.92518 3.29309 4.92518H13.9307C15.0284 4.92518 15.9245 5.82137 15.9245 6.91906V9.05082C15.9245 9.41141 16.2162 9.70307 16.5768 9.70307C16.9374 9.70307 17.229 9.41141 17.229 9.05082V6.91906C17.229 5.10548 15.7495 3.62598 13.936 3.62598H3.29309C1.4795 3.62598 0 5.10018 0 6.91906Z" fill="#1A2744"/>
  <path d="M20.4373 18.405C20.5645 18.5322 20.7289 18.5959 20.8986 18.5959C21.0683 18.5959 21.2327 18.5322 21.36 18.405L25.8091 13.9559C26.0636 13.7013 26.0636 13.293 25.8091 13.0385L21.36 8.58934C21.1054 8.3348 20.6971 8.3348 20.4426 8.58934C20.188 8.84388 20.188 9.2522 20.4426 9.50674L23.7834 12.8476H11.5921C11.2315 12.8476 10.9398 13.1392 10.9398 13.4998C10.9398 13.8604 11.2315 14.1521 11.5921 14.1521H23.7781L20.4373 17.4929C20.1827 17.7421 20.1827 18.1557 20.4373 18.405Z" fill="#1A2744"/>
</svg>